PathFileType	4	(X/Y/Z)	C:\Users\Basilio\Documents\Thesis Gigler\squatting_fais\c3dfiles\054\SLS_front_pre4\markers_experimental.trc
DataRate	CameraRate	NumFrames	NumMarkers	Units	OrigDataRate	OrigDataStartFrame	OrigNumFrames
200.000000	200.000000	4	61	mm	200.000000	532	1421
Frame#	Time	FHD			LBHD			RBHD			C7			T10			CLAV			LSHO			LUUPA			LMUPA			LDUPA			LLEP			LMEP			LRAD			LUL			LRFIN			RSHO			RUPA1			RMUPA			RDUPA			RLEP			RMEP			RRAD			RUL			RUFIN			LASI			RASI			USACR			LSACR			RSACR			LTHI1			LTHI2			LTHI3			LTHI4			LLFC			LMFC			LTIB1			LTIB2			LTIB3			LTIB4			LLMAL			LMMAL			LHEE			LMT1			LMT2			LMT5			RTHI			RTHI2			RTHI3			RTHI4			RLFC			RMFC			RTIB1			RTIB2			RTIB3			RTIB4			RLMAL			RMMAL			RHEE			RMT1			RMT2			RMT5			
		X1	Y1	Z1	X2	Y2	Z2	X3	Y3	Z3	X4	Y4	Z4	X5	Y5	Z5	X6	Y6	Z6	X7	Y7	Z7	X8	Y8	Z8	X9	Y9	Z9	X10	Y10	Z10	X11	Y11	Z11	X12	Y12	Z12	X13	Y13	Z13	X14	Y14	Z14	X15	Y15	Z15	X16	Y16	Z16	X17	Y17	Z17	X18	Y18	Z18	X19	Y19	Z19	X20	Y20	Z20	X21	Y21	Z21	X22	Y22	Z22	X23	Y23	Z23	X24	Y24	Z24	X25	Y25	Z25	X26	Y26	Z26	X27	Y27	Z27	X28	Y28	Z28	X29	Y29	Z29	X30	Y30	Z30	X31	Y31	Z31	X32	Y32	Z32	X33	Y33	Z33	X34	Y34	Z34	X35	Y35	Z35	X36	Y36	Z36	X37	Y37	Z37	X38	Y38	Z38	X39	Y39	Z39	X40	Y40	Z40	X41	Y41	Z41	X42	Y42	Z42	X43	Y43	Z43	X44	Y44	Z44	X45	Y45	Z45	X46	Y46	Z46	X47	Y47	Z47	X48	Y48	Z48	X49	Y49	Z49	X50	Y50	Z50	X51	Y51	Z51	X52	Y52	Z52	X53	Y53	Z53	X54	Y54	Z54	X55	Y55	Z55	X56	Y56	Z56	X57	Y57	Z57	X58	Y58	Z58	X59	Y59	Z59	X60	Y60	Z60	X61	Y61	Z61	

533	2.66	-224.6728057861329	1678.670532226563	-1092.829345703125	-383.6824951171876	1620.3486328125	-1164.969482421875	-402.088592529297	1619.492309570313	-1025.661987304688	-433.7272338867189	1458.576416015625	-1080.843383789063	-498.6217651367189	1135.22216796875	-1077.516479492188	-293.0980224609376	1394.282836914063	-1089.248291015625	-362.6511840820313	1459.376708984375	-1232.509765625	-214.8760070800782	1333.92626953125	-1353.60595703125	-181.0249938964844	1366.79541015625	-1340.204345703125	-147.5788116455078	1322.357055664063	-1362.424072265625	-91.51001739501955	1322.88818359375	-1359.62890625	-95.24241638183595	1255.85205078125	-1316.445922851563	168.263656616211	1314.186279296875	-1292.249267578125	177.2239532470703	1286.427124023438	-1364.3076171875	260.0769653320313	1326.584106445313	-1313.973876953125	-350.0888061523438	1455.123657226563	-941.199401855469	-198.3376617431641	1343.9599609375	-809.4040527343752	-162.7845306396485	1374.5009765625	-820.3566894531252	-130.8240661621094	1327.6640625	-796.4820556640627	-86.78140258789064	1322.477905273438	-797.6203613281252	-89.85935211181642	1264.862060546875	-847.054138183594	179.8365783691407	1373.356323242188	-889.4187011718752	181.7726593017578	1328.367797851563	-823.7319946289065	257.2992858886719	1397.837646484375	-869.9351196289065	-317.3280334472657	954.6437988281252	-1172.799438476563	-331.1898803710938	987.0676879882815	-927.9822387695315	-510.4059143066407	1036.935546875	-1066.9609375	-512.6140747070314	1001.963500976563	-1091.72119140625	-516.7514038085939	1007.288940429688	-1035.037963867188	-302.8082580566407	712.0643920898439	-1243.983764648438	-234.7684783935547	660.1058959960939	-1237.723022460938	-196.3020782470704	686.5396118164064	-1232.298461914063	-233.1726379394532	601.9307861328126	-1221.539184570313	-164.3766174316407	474.5932922363282	-1186.200439453125	-133.4873199462891	496.373748779297	-1053.590576171875	-167.4696807861328	324.7231750488282	-1107.525756835938	-232.6522369384766	288.0925598144532	-1157.274291992188	-197.2849578857422	278.4990844726563	-1129.958862304688	-229.9043731689454	216.9892578125001	-1082.0869140625	-336.7311096191407	108.9920349121094	-1102.987915039063	-301.1129455566407	136.159408569336	-1013.74169921875	-406.8347473144532	105.4801254272461	-1039.073364257813	-198.5612335205079	57.3663902282715	-1018.748596191406	-189.9481353759766	53.9734230041504	-1068.00634765625	-242.6276092529297	38.39964294433594	-1118.276123046875	-230.5044097900391	727.7284545898439	-843.3261718750002	-166.0665435791016	714.4686279296876	-854.334899902344	-144.1075897216797	736.6066284179689	-864.8417968750002	-134.3516693115235	638.0595092773439	-868.320983886719	-89.92720794677736	558.8104858398439	-875.1923828125002	-64.95407867431642	588.2215576171876	-1007.059631347656	6.667283058166506	489.6714477539064	-887.8791503906252	-20.00640296936036	391.2318725585939	-856.0025024414065	23.0561637878418	406.363739013672	-866.2044677734377	58.28871154785158	369.5558776855469	-894.2386474609377	86.63348388671876	187.3478088378907	-879.6482543945315	118.5161514282227	216.4297790527344	-963.665710449219	49.27628707885744	132.4364013671875	-941.2283325195315	262.8606262207032	195.4515380859376	-936.7777099609377	260.4431457519532	205.1951293945313	-890.144958496094	217.9478912353516	170.6839752197266	-844.347595214844	
534	2.665	-224.5480499267579	1677.760009765625	-1092.776611328125	-383.7718200683594	1619.459716796875	-1164.881713867188	-402.2695922851564	1618.521484375	-1025.611938476563	-433.7926330566407	1457.71875	-1080.851806640625	-498.8087768554689	1134.289794921875	-1077.474975585938	-292.7936096191407	1393.351196289063	-1089.185913085938	-362.4341430664063	1458.497192382813	-1232.50732421875	-214.6390686035157	1332.912353515625	-1353.470947265625	-180.7009429931641	1365.879760742188	-1340.053833007813	-147.2881927490235	1321.534912109375	-1362.319580078125	-91.21877288818361	1322.19970703125	-1359.4208984375	-95.03604125976564	1255.302490234375	-1316.298583984375	168.4545593261719	1313.811645507813	-1291.843872070313	177.4405670166016	1285.744384765625	-1363.957153320313	260.3207702636719	1326.0341796875	-1313.586791992188	-349.9256896972657	1454.27490234375	-941.2404785156252	-198.3851776123047	1343.219970703125	-809.2949218750002	-162.5777282714844	1373.6220703125	-820.4035644531252	-130.5518493652344	1326.92431640625	-796.7075805664065	-86.7488479614258	1321.641845703125	-797.854675292969	-89.69142913818361	1264.194702148438	-847.1267089843752	179.7504425048828	1373.4033203125	-889.5627441406252	181.9392700195313	1327.538940429688	-823.7630615234377	257.5922241210938	1396.97216796875	-869.9988403320315	-317.5533752441407	953.7562255859377	-1172.777221679688	-331.4204406738282	986.1858520507815	-927.9697875976565	-510.9002990722657	1036.149047851563	-1066.948120117188	-512.8898315429689	1001.087890625	-1091.683959960938	-516.8253784179689	1006.447814941406	-1034.939453125	-302.8782348632813	711.3556518554689	-1244.05419921875	-234.7093658447266	659.6469116210939	-1237.911987304688	-196.4194793701172	686.0651245117189	-1232.517944335938	-232.9973907470704	601.4294433593751	-1221.672729492188	-164.1463775634766	474.2354125976564	-1186.326782226563	-132.5690002441407	496.0724487304689	-1053.881958007813	-167.14013671875	324.3977355957032	-1107.707885742188	-232.3555603027344	287.9445800781251	-1157.494140625	-196.6002349853516	278.1426696777344	-1130.208129882813	-229.8565216064454	216.8491973876954	-1082.1767578125	-336.7975463867188	108.9739685058594	-1103.043334960938	-301.0840454101563	136.1699981689453	-1013.814453125	-406.8071594238282	105.4691772460938	-1039.10595703125	-198.5429229736329	57.38580322265626	-1018.776733398438	-189.9029235839844	54.03564071655275	-1068.036743164063	-242.627914428711	38.40442657470704	-1118.299560546875	-230.5017089843751	727.0449829101564	-843.2915649414065	-166.155014038086	713.6581420898439	-854.2526855468752	-144.0867156982422	736.0430297851564	-864.8222656250002	-134.4860382080078	637.3170166015626	-868.1434326171877	-89.8729705810547	558.1832885742189	-875.1062011718752	-64.87467193603517	587.6826782226564	-1006.955017089844	6.778959751129152	489.0972900390626	-887.7727661132815	-19.89140129089356	390.9042968750001	-855.8691406250002	23.32606506347657	405.6988525390626	-866.1016845703127	58.48598480224611	369.1066284179688	-894.1879882812502	87.09899902343751	186.8678741455078	-879.5600585937502	118.8097534179688	216.1031646728516	-963.603454589844	49.68892669677736	132.0926361083985	-941.1337890625002	263.2506713867188	195.2477264404297	-936.8029785156252	260.8185424804688	204.9765777587891	-889.9995727539065	218.2852935791016	170.4315795898438	-844.2503662109377	
535	2.67	-224.1343841552735	1676.771484375	-1092.876220703125	-383.3193969726563	1618.399536132813	-1165.033081054688	-401.8260803222657	1617.50830078125	-1025.818603515625	-433.6726684570314	1456.824462890625	-1080.855712890625	-498.8966674804689	1133.475708007813	-1077.382934570313	-292.7800598144532	1392.350219726563	-1089.297973632813	-362.2368164062501	1457.43505859375	-1232.51220703125	-214.3762969970704	1332.187622070313	-1353.388061523438	-181.1919403076172	1365.428955078125	-1340.062377929688	-147.0084228515625	1320.783447265625	-1362.158203125	-90.80664062500001	1321.316650390625	-1359.255859375	-94.76118469238283	1254.487426757813	-1316.073486328125	168.6437530517578	1313.43701171875	-1291.481811523438	176.9277648925782	1285.2451171875	-1363.416381835938	260.5344543457032	1325.474731445313	-1313.196166992188	-349.7080078125001	1453.33203125	-941.325134277344	-198.1908569335938	1342.321533203125	-809.5186767578127	-162.2616271972657	1372.81103515625	-820.5671997070315	-130.6103973388672	1325.935913085938	-796.7143554687502	-86.6386184692383	1320.885375976563	-797.6738281250002	-89.42236328125001	1263.271850585938	-847.2446899414065	180.116943359375	1372.412109375	-889.611755371094	182.1844482421875	1326.753173828125	-823.803405761719	257.7040100097657	1396.15087890625	-870.0491333007815	-317.2665710449219	952.5899658203127	-1172.709594726563	-331.8434448242188	985.3264160156252	-927.8929443359377	-511.0633544921876	1035.247680664063	-1066.899047851563	-513.3124389648439	1000.182861328125	-1091.598266601563	-517.7493896484376	1005.587036132813	-1034.696166992188	-302.9899291992188	710.6705932617189	-1244.083984375	-234.6602325439454	659.0313720703126	-1238.077026367188	-196.4317779541016	685.5446777343751	-1232.6357421875	-232.8042449951172	600.7327880859376	-1221.8291015625	-163.6239471435547	473.8425903320314	-1186.5546875	-130.740234375	495.5999145507814	-1054.569458007813	-166.9285736083985	324.1297302246094	-1107.855590820313	-231.7747344970704	287.6850280761719	-1157.470947265625	-196.6264953613282	277.9110412597657	-1130.339111328125	-229.7516632080079	216.740463256836	-1082.194213867188	-336.7295837402344	108.9476318359375	-1103.109252929688	-300.9667968750001	136.2263336181641	-1013.948120117188	-406.8066406250001	105.5065231323242	-1039.11328125	-198.5818634033204	57.39843750000001	-1018.802368164063	-189.9298400878907	53.95792770385744	-1068.055786132813	-242.6085815429688	38.43431472778321	-1118.304809570313	-230.6899871826172	726.3999633789064	-843.2470703125002	-166.213623046875	713.0431518554689	-854.2836914062502	-144.3289794921875	735.1557617187501	-864.6231689453127	-134.4820251464844	636.5682373046876	-868.0017089843752	-89.6183547973633	557.6398315429689	-875.0224609375002	-65.02980804443361	587.1031494140626	-1006.943298339844	6.810862064361574	488.6489562988282	-887.695739746094	-19.56698989868164	390.4152221679689	-855.759948730469	23.4813404083252	405.1833496093751	-866.0373535156252	58.5867156982422	368.6799926757813	-894.2403564453127	87.34217071533205	186.5868225097657	-879.4199829101565	119.1132736206055	215.8690185546876	-963.550720214844	49.9824676513672	131.7279815673828	-940.966247558594	263.6904602050782	195.0543060302735	-936.7319946289065	261.1336975097657	204.7792205810547	-889.8753051757815	218.6866302490235	170.1785736083985	-844.1295166015627	
536	2.675	-223.9487762451172	1675.671630859375	-1092.927978515625	-383.0440979003907	1617.53173828125	-1164.988037109375	-401.6478576660157	1616.589599609375	-1025.715209960938	-433.5702514648439	1455.835571289063	-1080.882080078125	-499.180145263672	1132.56591796875	-1077.350830078125	-292.7178039550782	1391.338256835938	-1089.263671875	-362.1134033203126	1456.423828125	-1232.502807617188	-214.0186462402344	1331.376342773438	-1353.349365234375	-180.3902893066407	1364.242553710938	-1339.834106445313	-146.45849609375	1319.884765625	-1361.982788085938	-90.57848358154298	1320.465209960938	-1359.125732421875	-94.51002502441408	1253.78759765625	-1315.80322265625	169.2961883544922	1312.458374023438	-1291.096435546875	177.1777496337891	1284.64111328125	-1363.0751953125	260.8091430664063	1324.94482421875	-1312.846557617188	-349.3788452148438	1452.48291015625	-941.3454589843752	-197.8603973388672	1341.408447265625	-809.6113891601565	-162.1922760009766	1371.959350585938	-820.5156860351565	-130.2894134521485	1325.128540039063	-796.666931152344	-86.38692474365236	1320.258666992188	-797.792175292969	-89.33929443359376	1262.615356445313	-847.4160766601565	180.3839569091797	1371.427978515625	-889.5066528320315	182.2765197753907	1326.15478515625	-823.7482910156252	257.8342895507813	1395.468872070313	-870.1829833984377	-317.5107116699219	951.6919555664065	-1172.707763671875	-332.0515441894532	984.412780761719	-927.8564453125002	-511.3192443847657	1034.4208984375	-1066.709350585938	-513.6434326171876	999.2886352539065	-1091.632080078125	-518.0458374023439	1004.722595214844	-1034.665893554688	-303.1773681640626	709.8798217773439	-1244.103515625	-234.6058197021485	658.3905639648439	-1238.330078125	-196.1518859863282	685.0062866210939	-1232.958129882813	-232.5603179931641	600.0498046875001	-1222.067504882813	-162.8632965087891	473.4717102050782	-1186.885498046875	-130.2937469482422	495.3635253906251	-1054.780395507813	-166.6731109619141	323.8999938964844	-1107.903686523438	-231.3694763183594	287.4065856933594	-1157.40234375	-196.5903320312501	277.4398193359376	-1130.378173828125	-229.8002929687501	216.6766204833985	-1082.3447265625	-336.8450927734376	108.8908309936524	-1103.170166015625	-300.9205932617188	136.237777709961	-1014.03466796875	-406.8057861328126	105.4774475097657	-1039.105224609375	-198.5694732666016	57.39917755126955	-1018.818298339844	-189.6108703613282	53.96531295776369	-1067.905517578125	-242.5760955810547	38.39636611938477	-1118.330932617188	-230.9334259033204	725.6607055664064	-843.0605468750002	-166.3825836181641	712.4402465820314	-854.0015258789065	-144.4986267089844	734.3922119140626	-864.5796508789065	-134.5737457275391	635.9078979492189	-868.0113525390627	-89.65512847900392	557.0588378906251	-874.8819580078127	-64.96992492675783	586.6347045898439	-1006.789733886719	6.944674491882326	488.1610107421876	-887.609558105469	-19.28943061828614	389.8099670410157	-855.6776123046877	23.55551528930664	404.8546752929689	-866.042175292969	58.64606857299806	368.3397216796876	-894.029235839844	87.61808013916017	186.2328796386719	-879.258728027344	119.6267776489258	215.501937866211	-963.4356079101565	50.50289535522462	131.2495727539063	-940.9243164062502	264.1418457031251	194.8143615722657	-936.6140747070315	261.4867553710938	204.4444885253907	-889.7889404296877	219.2563629150391	169.8276824951172	-844.0895996093752	
